# xmcd
#
# Track frame offsets:
#	188
#	17183
#	32075
#	45188
#	62283
#	79738
#	95458
#	110090
#	126340
#	142868
#
# Disc length: 2138 seconds
#
# Revision: 3
# Processed by: cddbd v1.5.1PL2 Copyright (c) Steve Scherf et al.
# Submitted via: audiograbber 1.83.01
#
DISCID=7808580a
DTITLE=Arno - Ratata
DYEAR=1990
DGENRE=Rock
TTITLE0=Lonesome Zorro
TTITLE1=Dance till you drop
TTITLE2=Mon sissoyen
TTITLE3=Ratata
TTITLE4=I've done my best
TTITLE5=Whoop that thing
TTITLE6=Marie tu m'as (Marie Thumas)
TTITLE7=I'm not there
TTITLE8=I can't stand it
TTITLE9=Music is the dope
EXTD=
EXTT0=
EXTT1=
EXTT2=
EXTT3=
EXTT4=
EXTT5=
EXTT6=
EXTT7=
EXTT8=
EXTT9=
PLAYORDER=
